<?xml version="1.0" encoding="UTF-8"?>
<svg xmlns="http://www.w3.org/2000/svg" width="164" height="42" viewBox="0 0 164 42" fill="none">
  <g clip-path="url(#clip0_424_8507)">
    <path d="M65.0635 16.4934C65.0635 16.7638 65.067 16.9987 65.0741 17.2086C63.9249 15.5754 61.6547 14.5542 59.0502 14.5542C54.3071 14.5542 50.8628 18.1159 50.8628 23.0191C50.8628 27.9223 54.3462 31.484 59.1427 31.484C61.886 31.484 63.8964 30.26 64.8891 28.8687C64.882 29.0716 64.8784 29.2922 64.8784 29.5448V35.8356H55.4422V38.5683H67.8887V15.0488H65.0635V16.4934ZM64.9994 22.9906C64.9994 26.2962 62.6653 28.6944 59.4487 28.6944C56.2321 28.6944 53.9299 26.2962 53.9299 22.9906C53.9299 19.6851 56.2499 17.2869 59.4487 17.2869C62.6475 17.2869 64.9994 19.6851 64.9994 22.9906Z" fill="#F4141F"></path>
    <path d="M69.7656 31.457H72.7723V17.7509H80.3476V31.457H83.3579V15.0503H69.7656V31.457Z" fill="#F4141F"></path>
    <path d="M88.3718 9.20459H85.1445V12.3393H88.3718V9.20459Z" fill="#F4141F"></path>
    <path d="M88.2485 15.0503H85.2383V31.457H88.2485V15.0503Z" fill="#F4141F"></path>
    <path d="M49.3261 15.0503H46.3159V31.457H49.3261V15.0503Z" fill="#F4141F"></path>
    <path d="M49.4494 9.20459H46.2222V12.3393H49.4494V9.20459Z" fill="#F4141F"></path>
    <path d="M105.493 15.0503H101.952L97.7287 21.1561L93.5371 15.0503H89.9007L95.7895 23.1487L89.8438 31.457H93.3841L97.6397 25.1377L101.927 31.3788L101.984 31.457H105.55L99.6358 23.1487L105.493 15.0503Z" fill="#F4141F"></path>
    <path d="M110.273 10.812H107.27V15.4554L109.291 17.2132H107.27V31.4565H114.699V28.7274H110.273V17.7505H115.165V15.0462H110.273V10.812Z" fill="#2B2B2B"></path>
    <path d="M123.981 14.5539C119.067 14.5539 115.359 18.2864 115.359 23.2358C115.359 28.1852 119.078 31.9498 124.013 31.9498C126.817 31.9498 129.147 30.8112 130.756 28.6549L130.891 28.4699L129.065 26.6054L128.877 26.8402C127.632 28.3952 126.005 29.1851 124.041 29.1851C121.198 29.1851 119.06 27.3882 118.54 24.5843H131.983L132.012 24.3495C132.044 24.0898 132.076 23.5454 132.076 23.2322C132.076 18.201 128.671 14.5503 123.981 14.5503V14.5539ZM118.537 21.9477C119.028 19.1475 121.181 17.283 123.949 17.283C126.717 17.283 128.745 19.1902 129.041 21.9477H118.533H118.537Z" fill="#2B2B2B"></path>
    <path d="M146.56 26.5271C145.439 28.2457 143.713 29.1922 141.71 29.1922C138.44 29.1922 136.066 26.6908 136.066 23.2394C136.066 19.7879 138.44 17.2865 141.71 17.2865C143.67 17.2865 145.35 18.169 146.439 19.7666L146.62 20.0334L148.556 18.0942L148.42 17.9092C146.844 15.7423 144.46 14.5503 141.706 14.5503C136.739 14.5503 132.992 18.2828 132.992 23.2322C132.992 28.1817 136.657 31.9462 141.706 31.9462C144.506 31.9462 147.054 30.5799 148.524 28.2955L148.641 28.1105L146.737 26.246L146.56 26.52V26.5271Z" fill="#2B2B2B"></path>
    <path d="M152.436 15.0497V7.71631H149.426V31.4565H152.436V17.7504H160.008V31.4565H163.018V15.0497H152.436Z" fill="#2B2B2B"></path>
    <path d="M22.9022 1.17299V9.93322C22.9022 10.0542 22.8026 10.1538 22.6816 10.1538H16.6576C16.5366 10.1538 16.437 10.0542 16.437 9.93322V1.17299C16.437 0.991527 16.6469 0.88834 16.7928 0.998643L17.8887 1.83481C17.9813 1.90598 18.1165 1.89174 18.1912 1.80279L19.5042 0.258543C19.5931 0.155356 19.7532 0.155356 19.8422 0.258543L21.1552 1.80279C21.2299 1.89174 21.3651 1.90598 21.4576 1.83481L22.5535 0.998643C22.6994 0.88834 22.9093 0.991527 22.9093 1.17299H22.9022Z" fill="#F4141F"></path>
    <path d="M39.2562 20.7335L36.2139 23.7758C36.1285 23.8612 35.9862 23.8612 35.9008 23.7758L31.6417 19.5166C31.5563 19.4312 31.5563 19.2889 31.6417 19.2035L34.6839 16.1613C34.812 16.0332 35.0362 16.1079 35.0575 16.2894L35.2426 17.6557C35.2568 17.7731 35.3635 17.855 35.481 17.8478L37.4984 17.6842C37.6337 17.6735 37.7475 17.7874 37.7368 17.9226L37.5732 19.9401C37.5625 20.0575 37.6479 20.1607 37.7653 20.1785L39.1316 20.3635C39.3131 20.3884 39.3878 20.609 39.2597 20.7371L39.2562 20.7335Z" fill="#F4141F"></path>
    <path d="M0.0827978 20.7335L3.12504 23.7758C3.21043 23.8612 3.35276 23.8612 3.43816 23.7758L7.69729 19.5166C7.78269 19.4312 7.78269 19.2889 7.69729 19.2035L4.65505 16.1613C4.52696 16.0332 4.30279 16.1079 4.28144 16.2894L4.09642 17.6557C4.08219 17.7731 3.97544 17.855 3.85802 17.8478L1.84054 17.6842C1.70533 17.6735 1.59146 17.7874 1.60214 17.9226L1.76581 19.9401C1.77649 20.0575 1.69109 20.1607 1.57367 20.1785L0.207334 20.3635C0.0258669 20.3884 -0.0488547 20.609 0.0792396 20.7371L0.0827978 20.7335Z" fill="#F4141F"></path>
    <path d="M35.6629 10.5949L29.5108 16.7469C29.4254 16.8323 29.2831 16.8323 29.1977 16.7469L24.9386 12.4878C24.8532 12.4024 24.8532 12.2601 24.9386 12.1747L31.0906 6.0226C31.2187 5.8945 31.4429 5.96923 31.4643 6.15069L31.6493 7.51703C31.6635 7.63445 31.7703 7.71629 31.8877 7.70917L33.9052 7.5455C34.0404 7.53482 34.1542 7.64869 34.1436 7.7839L33.9799 9.80138C33.9692 9.9188 34.0546 10.022 34.172 10.0398L35.5384 10.2248C35.7198 10.2497 35.7946 10.4703 35.6665 10.5984L35.6629 10.5949Z" fill="#F4141F"></path>
    <path d="M3.67264 10.6593L9.82473 16.8114C9.91012 16.8968 10.0524 16.8968 10.1378 16.8114L14.397 12.5523C14.4824 12.4669 14.4824 12.3245 14.397 12.2391L8.2449 6.08705C8.1168 5.95896 7.89264 6.03368 7.87129 6.21515L7.68626 7.58149C7.67203 7.6989 7.56528 7.78074 7.44786 7.77363L5.43038 7.60995C5.29517 7.59928 5.18131 7.71314 5.19198 7.84835L5.35566 9.86583C5.36633 9.98325 5.28094 10.0864 5.16352 10.1042L3.79718 10.2893C3.61571 10.3142 3.54099 10.5348 3.66908 10.6629L3.67264 10.6593Z" fill="#F4141F"></path>
    <path d="M29.1796 22.7022C28.9554 22.4745 28.5889 22.4745 28.3612 22.7022L21.6362 29.4343C21.4121 29.6585 21.0456 29.6585 20.8214 29.4343L17.8396 26.4561C17.6155 26.2319 17.6155 25.8654 17.8396 25.6413L22.4795 21.0014C23.8636 19.6137 23.8672 17.3685 22.4831 15.9808L20.0742 13.5648C19.85 13.3371 19.4835 13.3371 19.2558 13.5648L7.77713 25.1004C6.39656 26.4881 6.39656 28.7262 7.77713 30.1139L19.2558 41.6495C19.48 41.8772 19.8465 41.8772 20.0742 41.6495L31.56 30.1139C32.9405 28.7262 32.9405 26.4881 31.56 25.1004L29.1796 22.7058V22.7022Z" fill="#F4141F"></path>
  </g>
  <defs>
    <clipPath id="clip0_424_8507">
      <rect width="163" height="41.6378" fill="white" transform="translate(0.0151367 0.181152)"></rect>
    </clipPath>
  </defs>
</svg>
